PathFileType        4      (X/Y/Z)      C:\Users\pc\Desktop\IMUTRC\Sujet_02\Sujet_02_velo_60.trc         
DataRate	CameraRate	NumFrames	NumMarkers	Units	OrigDataRate	OrigDataStartFrame	OrigNumFrames
60.0	60.0	4	64	mm	60.0	626	1250
Frame#	Time	pHipOrigin			pRightASI			pLeftASI			pRightCSI			pLeftCSI			pRightIschialTub			pLeftIschialTub			pSacrum			pL5SpinalProcess			pL3SpinalProcess			pT12SpinalProcess			pIJ			pT4SpinalProcess			pT8SpinalProcess			pPX			pC7SpinalProcess			pTopOfHead			pRightAuricularis			pLeftAuricularis			pBackOfHead			pRightAcromion			pLeftAcromion			pRightArmLatEpicondyle			pRightArmMedEpicondyle			pLeftArmLatEpicondyle			pLeftArmMedEpicondyle			pRightUlnarStyloid			pRightRadialStyloid			pRightOlecranon			pLeftUlnarStyloid			pLeftRadialStyloid			pLeftOlecranon			pRightTopOfHand			pRightPinky			pRightBallHand			pLeftTopOfHand			pLeftPinky			pLeftBallHand			pRightGreaterTrochanter			pRightKneeLatEpicondyle			pRightKneeMedEpicondyle			pRightPatella			pLeftGreaterTrochanter			pLeftKneeLatEpicondyle			pLeftKneeMedEpicondyle			pLeftPatella			pRightTibialTub			pRightLatMalleolus			pRightMedMalleolus			pLeftTibialTub			pLeftLatMalleolus			pLeftMedMalleolus			pRightHeelFoot			pRightFirstMetatarsal			pRightFifthMetatarsal			pRightPivotFoot			pRightHeelCenter			pRightToe			pLeftHeelFoot			pLeftFirstMetatarsal			pLeftFifthMetatarsal			pLeftPivotFoot			pLeftHeelCenter			pLeftToe			
		X1	Y1	Z1	X2	Y2	Z2	X3	Y3	Z3	X4	Y4	Z4	X5	Y5	Z5	X6	Y6	Z6	X7	Y7	Z7	X8	Y8	Z8	X9	Y9	Z9	X10	Y10	Z10	X11	Y11	Z11	X12	Y12	Z12	X13	Y13	Z13	X14	Y14	Z14	X15	Y15	Z15	X16	Y16	Z16	X17	Y17	Z17	X18	Y18	Z18	X19	Y19	Z19	X20	Y20	Z20	X21	Y21	Z21	X22	Y22	Z22	X23	Y23	Z23	X24	Y24	Z24	X25	Y25	Z25	X26	Y26	Z26	X27	Y27	Z27	X28	Y28	Z28	X29	Y29	Z29	X30	Y30	Z30	X31	Y31	Z31	X32	Y32	Z32	X33	Y33	Z33	X34	Y34	Z34	X35	Y35	Z35	X36	Y36	Z36	X37	Y37	Z37	X38	Y38	Z38	X39	Y39	Z39	X40	Y40	Z40	X41	Y41	Z41	X42	Y42	Z42	X43	Y43	Z43	X44	Y44	Z44	X45	Y45	Z45	X46	Y46	Z46	X47	Y47	Z47	X48	Y48	Z48	X49	Y49	Z49	X50	Y50	Z50	X51	Y51	Z51	X52	Y52	Z52	X53	Y53	Z53	X54	Y54	Z54	X55	Y55	Z55	X56	Y56	Z56	X57	Y57	Z57	X58	Y58	Z58	X59	Y59	Z59	X60	Y60	Z60	X61	Y61	Z61	X62	Y62	Z62	X63	Y63	Z63	X64	Y64	Z64	
626	10.417	0.0	1250.02827	7.654215598496017E-14	43.56850000000001	1370.69705	143.4795200000001	51.21009999999999	1365.22248	-145.41842999999992	-16.93696999999999	1429.77686	114.68097000000009	-10.664020000000008	1425.27174	-122.15147999999992	-46.81902999999999	1179.65715	59.36494000000007	-43.68256000000001	1177.37608	-59.022779999999926	-74.19191	1257.0996	-2.1099899999999185	-54.74576	1373.60542	-3.5926899999999127	-13.57239	1488.00126	5.189440000000093	34.44421	1588.19741	17.507240000000092	294.0874	1633.59077	50.867940000000075	171.59375	1733.78693	50.0695600000001	99.79696	1675.39144	33.87394000000009	199.42285	1549.7043	28.570450000000086	222.29061	1769.02951	61.931150000000095	461.06198	1779.80758	87.53619000000009	369.93309	1748.67093	138.4611600000001	381.16738	1780.37785	13.515360000000085	365.485	1812.9972	87.36511000000009	182.82804000000002	1706.41404	252.0015900000001	235.40678	1751.06606	-149.2962599999999	256.79185	1421.50797	291.7493000000001	218.46981000000002	1398.81129	244.64513000000008	319.8065	1460.74243	-147.12923999999995	277.32151	1444.20465	-101.10857999999993	370.73147	1168.53692	351.45640000000003	409.56674	1183.47795	310.2830200000001	215.90360000000004	1410.21665	288.9549800000001	449.02931	1214.10136	-185.10910999999993	481.64867	1230.92428	-139.48763999999994	279.71664	1451.21895	-147.87058999999994	556.12571	1088.52827	337.48482	470.87059	1102.78497	365.94121	409.79485	1142.24755	340.5072400000001	638.81463	1191.2336	-96.14724999999997	569.6981	1175.66527	-153.23110999999994	495.62024	1196.25196	-157.50811999999993	21.95533000000001	1247.00585	178.60805000000008	426.27561	1053.57081	192.46557000000004	433.86018	1047.8111	106.41208000000005	448.17391	1095.54257	145.13330000000002	22.58262999999999	1214.21541	-173.87482999999992	325.79432	887.96488	-122.32256999999996	330.86971	897.08917	-36.32609999999996	361.83528	927.5415	-82.11864999999997	477.65679	1008.12042	147.52843000000001	315.87165	607.33581	147.07221	321.68839	610.87148	78.98217000000002	361.20799	837.72424	-82.74593999999998	88.33456999999999	511.98694	-162.01323999999997	85.76836	504.80156	-93.98022999999998	259.07292	498.35753	85.08404000000002	442.35717	468.07628	92.38348	417.20834	460.37766	176.26995	453.70552	459.63631	139.8298	299.67603	489.29026	96.43238000000001	533.42903	445.09446	162.3554	-30.965570000000007	457.0701	-127.79713999999997	94.09428	320.26272	-113.36934999999998	88.27753999999999	333.26484	-200.10716999999997	108.12287999999998	308.57222	-159.44703999999996	-2.5091800000000086	425.30615	-134.46927999999997	165.89107	248.80809	-172.27806999999999	
627	10.433	0.0	1250.02827	7.654215598496017E-14	43.68256000000001	1370.69705	143.4795200000001	50.981989999999996	1365.33653	-145.4754599999999	-16.879939999999994	1429.71983	114.73800000000008	-10.892130000000007	1425.27174	-122.03742999999992	-46.70497999999999	1179.60012	59.36494000000007	-43.68256000000001	1177.37608	-59.022779999999926	-74.19191	1257.04257	-1.9959399999999186	-54.85982	1373.5484	-3.4786399999999125	-13.68644	1488.00126	5.189440000000093	34.33016	1588.19741	17.393190000000093	293.97334	1633.76185	50.297670000000075	171.4797	1733.90098	49.613350000000096	99.62588	1675.44847	33.588810000000095	199.3088	1549.81835	28.228280000000087	222.11953	1769.20059	61.360880000000094	460.94792	1779.86461	86.90890000000009	369.76201	1748.72796	137.77684000000008	381.05332	1780.49191	12.888070000000086	365.42797	1813.11126	86.73782000000008	182.82804000000002	1706.58512	251.6024000000001	235.0076	1750.83795	-149.92354999999992	256.96293	1421.67905	291.1790300000001	218.58387000000002	1398.98237	244.18892000000008	319.52137	1460.57135	-147.41436999999993	276.97935	1444.09059	-101.39371999999993	370.50336	1168.65097	351.39937000000003	409.39566	1183.42092	310.16897000000006	216.01766000000003	1410.44476	288.4417400000001	448.80121	1214.04433	-185.45126999999994	481.3065	1230.7532	-139.71574999999996	279.4315	1451.10489	-148.21274999999994	555.89761	1088.52827	337.42779	470.64249	1102.842	365.88419	409.56674	1142.30457	340.45022000000006	638.47247	1191.17657	-96.31832999999997	569.41297	1175.55122	-153.40218999999993	495.33511	1196.13791	-157.73622999999995	21.72722000000001	1245.29504	178.55103000000008	419.14725	1038.05951	190.92585000000003	426.67479	1032.87007	104.81533000000003	442.52826	1079.74613	143.99276000000003	23.72315999999999	1214.95676	-173.81779999999992	335.43186	896.97512	-121.29607999999996	339.87995	906.09941	-35.299609999999966	370.21823	937.46417	-80.92107999999998	472.06816	993.86372	146.50194000000002	320.37677	589.08723	147.69951	326.36459	592.45181	79.60946000000003	368.56445	846.16421	-82.17566999999997	85.71133999999999	529.43715	-162.98269999999997	83.0881	521.85259	-95.00670999999997	266.14425	478.22706	87.82133000000002	450.16985	452.45092	94.43644	425.76237	445.49365	178.55103	462.03143	445.03744	141.9398	307.08952	470.30032	99.05562000000002	542.15414	432.71964	164.12324	-34.95745000000001	477.71381	-129.27983999999998	86.16755	337.31374	-115.70744999999998	80.86404999999999	351.11424	-202.33121999999997	99.96804999999999	325.62324	-161.78513999999998	-7.413490000000008	445.20852	-136.18008999999998	156.02543	264.31939	-174.95833999999996	
628	10.45	0.0	1250.02827	7.654215598496017E-14	43.79661000000001	1370.64003	143.4795200000001	50.753879999999995	1365.45059	-145.4754599999999	-16.879939999999994	1429.60578	114.85205000000009	-11.177260000000008	1425.38579	-121.92337999999991	-46.59092999999999	1179.5431	59.42196000000007	-43.739580000000004	1177.37608	-59.022779999999926	-74.19191	1256.98554	-1.9389099999999184	-54.91684	1373.49137	-3.3645799999999126	-13.80049	1487.94423	5.246470000000093	34.10205	1588.25444	17.27913000000009	293.85929	1633.98996	49.67038000000008	171.25159	1734.07206	49.1001100000001	99.39778	1675.5055	33.246650000000095	199.13771	1549.9324	27.886120000000084	221.94845	1769.4287	60.733580000000096	460.77684	1779.92164	86.16755000000009	369.5339	1748.89904	136.9784600000001	380.88224	1780.66299	12.089690000000084	365.25689	1813.28234	85.99647000000009	182.82804000000002	1706.75621	251.1461900000001	234.49435	1750.55282	-150.6078799999999	257.01995	1421.90715	290.7798400000001	218.58387000000002	1399.21047	243.78973000000008	319.00813	1460.34324	-147.69950999999995	276.52313	1443.91951	-101.62181999999993	370.10417	1168.82205	351.45640000000003	408.99648	1183.47795	310.2259900000001	216.01766000000003	1410.72989	288.0425500000001	448.34499	1213.87325	-185.62234999999995	480.79326	1230.52509	-139.82979999999995	278.97529	1450.93381	-148.55490999999995	555.44139	1088.52827	337.42779	470.2433	1102.89903	365.88419	409.16756	1142.3616	340.45022000000006	638.01625	1191.06252	-96.37534999999997	568.95675	1175.43716	-153.51624999999996	494.87889	1195.9098	-157.85027999999994	21.499120000000012	1243.58423	178.49400000000009	411.04944	1021.74984	188.92991000000004	418.4059	1017.07364	102.76236000000003	435.97017	1062.98024	142.39601000000002	24.92072999999999	1215.92622	-173.81779999999992	345.2975	906.84076	-120.44067999999996	349.00424	915.79398	-34.387179999999965	378.71522	948.18522	-79.72351999999997	465.16791	978.69458	144.96222000000003	322.88595	570.61053	147.92762	329.04485	573.68998	79.83757000000001	376.20604	855.51661	-81.66242999999997	84.62782999999999	547.1725	-163.66701999999998	82.00459	539.18874	-95.74805999999997	270.87748	458.15361	89.87430000000002	455.41632	436.08422	95.74806	431.5791	429.75424	180.14778	467.67709	429.58316	143.25141	311.99383	451.19633	100.93750000000001	548.19898	419.14725	165.20675	-37.295550000000006	498.18645	-130.53442999999996	80.29378999999999	354.70693	-117.58933999999998	75.44650999999999	369.19174	-204.21309999999997	93.86616999999998	342.9594	-163.78107999999997	-10.54996000000001	465.05386	-137.54872999999998	148.3268	280.34393	-177.23940999999996	
629	10.467	0.0	1250.02827	7.654215598496017E-14	43.91066000000001	1370.52597	143.5365500000001	50.411719999999995	1365.62167	-145.41842999999992	-16.822919999999993	1429.49172	115.08016000000009	-11.519420000000007	1425.44282	-121.75229999999992	-46.41984999999999	1179.42904	59.42196000000007	-43.739580000000004	1177.4331	-59.022779999999926	-74.19191	1256.92851	-1.7678299999999185	-55.0309	1373.49137	-3.1934999999999123	-14.0286	1487.94423	5.303500000000092	33.87394	1588.31146	17.222100000000093	293.63118	1634.33212	48.98605000000008	170.96646	1734.30017	48.4728100000001	99.11264	1675.61955	32.90448000000009	198.96663	1550.16051	27.543960000000084	221.66332	1769.71383	59.93521000000009	460.49171	1780.09272	85.36918000000009	369.19174	1749.2412	136.1230600000001	380.65414	1780.83407	11.234290000000085	365.02878	1813.56747	85.08404000000009	182.82804000000002	1707.21242	250.6329500000001	233.69598	1750.38174	-151.34922999999992	256.73482	1422.24932	290.55173000000013	218.35576000000003	1399.55263	243.5616200000001	318.20975	1460.05811	-147.92761999999993	275.72476	1443.69141	-101.84992999999993	369.41985	1168.99313	351.51342000000005	408.36918	1183.53498	310.3400500000001	215.73252000000002	1411.12908	287.81445000000014	447.7177	1213.58812	-185.62234999999995	480.10894	1230.29698	-139.77277999999995	278.23394	1450.64868	-148.84003999999993	554.70004	1088.58529	337.54185	469.50195	1102.95605	365.99824	408.48323	1142.47565	340.5642700000001	637.33193	1191.00549	-96.26129999999998	568.32946	1175.26608	-153.40218999999993	494.19457	1195.73872	-157.85027999999994	21.27101000000001	1241.70235	178.3799500000001	401.75407	1004.64179	186.30668000000003	408.88242	1000.47883	100.08210000000003	428.27155	1045.2449	140.11494000000002	26.23234999999999	1217.23784	-173.81779999999992	355.44828	917.61883	-119.81337999999997	358.18556	926.17286	-33.64582999999996	387.26925	959.70464	-78.58297999999998	456.95605	962.72706	142.73817000000003	323.22811	551.67762	147.87059	329.44404	554.52896	79.78054000000002	384.13277	865.83847	-81.20621999999997	85.08403999999999	564.96487	-164.12323999999998	82.40378	556.69598	-96.20426999999997	272.98747	438.02314	91.01483000000002	457.86847	418.97617	96.31833	434.48747	412.98835	180.88913	470.41438	413.04538	143.87871	314.2749	431.80721	102.02101000000002	551.16438	404.09217	165.60593	-37.86582000000001	518.54503	-131.44685999999996	76.41595999999998	372.38525	-119.12905999999997	72.08191999999998	387.44033	-205.63876999999997	89.81726999999998	360.58069	-165.32079999999996	-11.861580000000009	484.84217	-138.57520999999997	142.90925	296.82469	-179.06426999999996	
